<svg height="512pt" viewBox="0 -38 512.00096 512" width="512pt" xmlns="http://www.w3.org/2000/svg"><path d="m81.953125 92.097656c2.558594 0 5.117187-.976562 7.070313-2.929687.007812-.003907.035156-.03125.058593-.054688 3.902344-3.851562 3.976563-10.136719.148438-14.082031-3.847657-3.960938-10.179688-4.058594-14.144531-.210938-.042969.042969-.171876.167969-.214844.214844-3.894532 3.90625-3.894532 10.230469.007812 14.132813 1.957032 1.957031 4.515625 2.929687 7.074219 2.929687zm0 0"/><path d="m509.84375 222.769531c-7.332031-55.710937-33.160156-108.179687-72.722656-147.742187-48.382813-48.382813-112.703125-75.027344-181.121094-75.027344-53.46875 0-104.660156 16.277344-148.042969 47.070312-4.503906 3.199219-5.5625 9.441407-2.367187 13.945313 3.195312 4.503906 9.4375 5.5625 13.945312 2.367187 3.226563-2.289062 6.5-4.484374 9.816406-6.597656l24.875 43.085938c-10.71875 7.011718-20.796874 15.171875-30.0625 24.4375-9.179687 9.179687-17.339843 19.289062-24.378906 30.09375l-43.085937-24.871094c4.492187-7.085938 9.363281-13.941406 14.613281-20.53125 3.4375-4.320312 2.726562-10.613281-1.59375-14.054688-4.324219-3.441406-10.613281-2.726562-14.054688 1.589844-28.910156 36.300782-47.414062 79.949219-53.507812 126.230469-7.308594 55.503906 4.097656 112.792969 32.101562 161.296875 5.949219 10.355469 15.574219 17.769531 27.101563 20.882812 3.878906 1.050782 7.816406 1.566407 11.730469 1.566407 7.714844 0 15.332031-2.015625 22.199218-5.960938 10.355469-5.953125 17.769532-15.574219 20.882813-27.101562 3.113281-11.53125 1.554687-23.578125-4.40625-33.949219-18.5-32.046875-25.726563-68.402344-20.890625-105.136719 4.808594-36.523437 21.210938-69.6875 47.433594-95.910156 31.4375-31.4375 73.234375-48.746094 117.691406-48.746094 44.460938 0 86.261719 17.308594 117.695312 48.746094 26.222657 26.21875 42.621094 59.386719 47.433594 95.910156 2.3125 17.574219 1.859375 35.0625-1.265625 52.039063l-103.328125-39.085938c-1.882812-12.992187-7.867187-25.019531-17.261718-34.414062-23.851563-23.851563-62.660157-23.851563-86.511719 0-23.851563 23.851562-23.851563 62.664062 0 86.515625 11.925781 11.925781 27.589843 17.886719 43.253906 17.886719 15.667969 0 31.332031-5.960938 43.257813-17.890626 1.6875-1.683593 3.269531-3.46875 4.746093-5.332031l109 17.808594c-3.382812 9.484375-7.652343 18.71875-12.792969 27.625-12.277343 21.375-4.882812 48.753906 16.488282 61.03125 10.351562 5.953125 22.402344 7.511719 33.929687 4.398437 11.527344-3.113281 21.152344-10.53125 27.089844-20.863281 28.011719-48.519531 39.417969-105.8125 32.109375-161.3125zm-415.410156 126.714844c3.285156 5.722656 4.148437 12.378906 2.429687 18.75-1.722656 6.367187-5.820312 11.6875-11.539062 14.972656-5.722657 3.289063-12.378907 4.152344-18.75 2.433594-6.367188-1.722656-11.6875-5.820313-14.984375-11.558594-19.304688-33.4375-29.929688-70.160156-31.457032-107.933593h49.617188c1.597656 29.199218 10.015625 57.933593 24.683594 83.335937zm-23.386719-117.730469c-.632813 4.785156-1.0625 9.585938-1.316406 14.390625h-49.558594c.304687-6.90625.902344-13.828125 1.816406-20.765625 3.632813-27.582031 12.046875-54.140625 24.730469-78.511718l43.054688 24.855468c-9.5625 18.769532-15.972657 39.105469-18.726563 60.03125zm155.855469 53.519532c-16.050782-16.050782-16.050782-42.171876 0-58.222657 16.054687-16.054687 42.171875-16.050781 58.226562 0 3.367188 3.367188 6.078125 7.238281 8.074219 11.445313l-28.527344-10.792969c-7.066406-2.671875-14.8125-2.171875-21.8125 1.417969-7.570312 3.878906-13.410156 11.109375-15.613281 19.335937-2.203125 8.222657-.761719 17.398438 3.855469 24.546875 4.269531 6.605469 10.722656 10.917969 18.179687 12.136719l30.089844 4.914063c-16.03125 11.058593-38.214844 9.472656-52.472656-4.78125zm74.1875-11.9375c-.027344-.003907-.054688-.007813-.082032-.015626l-48.496093-7.921874c-2.316407-.378907-3.78125-1.976563-4.605469-3.246094-1.578125-2.445313-2.089844-5.710938-1.335938-8.523438.753907-2.8125 2.828126-5.382812 5.417969-6.710937.894531-.457031 2.109375-.898438 3.46875-.898438.683594 0 1.40625.113281 2.140625.390625l45.832032 17.335938c.09375.039062.191406.074218.289062.109375l46.109375 17.441406zm-35.089844-203.363282v-49.746094c35.132812 1.453126 68.886719 10.558594 99.351562 26.511719l-24.882812 43.101563c-22.949219-11.683594-48.203125-18.488282-74.46875-19.867188zm-119.34375-23.222656c30.625-16.046875 64.359375-25.085938 99.34375-26.535156v49.757812c-26.265625 1.378906-51.519531 8.183594-74.46875 19.867188zm211.117188 53.121094 24.890624-43.109375c14.414063 9.195312 27.933594 20.027343 40.3125 32.40625 12.375 12.375 23.195313 25.886719 32.382813 40.328125l-43.140625 24.910156c-7.039062-10.808594-15.203125-20.917969-24.382812-30.097656-9.265626-9.265625-19.34375-17.425782-30.0625-24.4375zm64.453124 71.851562 43.140626-24.90625c12.628906 24.234375 20.976562 50.679688 24.648437 78.5625.910156 6.933594 1.507813 13.859375 1.816406 20.765625h-49.558593c-.253907-4.804687-.6875-9.605469-1.316407-14.390625-2.753906-20.925781-9.164062-41.261718-18.730469-60.03125zm38.171876 202.375c-3.285157 5.722656-8.605469 9.820313-14.972657 11.539063-6.367187 1.71875-13.027343.859375-18.746093-2.429688-11.808594-6.785156-15.898438-21.914062-9.121094-33.703125 6.300781-10.914062 11.445312-22.441406 15.394531-34.355468l12.1875 1.992187c.546875.089844 1.085937.132813 1.621094.132813 4.453125 0 8.464843-2.984376 9.652343-7.414063 1.332032-4.964844-1.316406-10.125-6.121093-11.945313l-11.578125-4.375c1.84375-9.027343 3.03125-18.183593 3.539062-27.390624h49.613282c-1.527344 37.777343-12.152344 74.5-31.46875 107.949218zm0 0"/><path d="m316.007812 354.496094h-120.015624c-5.523438 0-10 4.476562-10 10v32.003906c0 5.523438 4.476562 10 10 10h120.015624c5.523438 0 10.003907-4.476562 10.003907-10v-32.003906c0-5.523438-4.480469-10-10.003907-10zm-10 32.003906h-100.011718v-12.003906h100.011718zm0 0"/><path d="m108.175781 246.144531c-5.523437 0-10 4.476563-10 10 0 5.523438 4.476563 10 10 10h.238281c5.523438 0 10-4.476562 10-10 0-5.523437-4.476562-10-10-10zm0 0"/><path d="m190.882812 123.335938-.117187-.207032c-2.765625-4.78125-8.882813-6.421875-13.664063-3.65625-4.78125 2.761719-6.421874 8.878906-3.65625 13.664063l.117188.203125c1.851562 3.207031 5.214844 5 8.667969 5 1.699219 0 3.417969-.433594 4.992187-1.339844 4.785156-2.765625 6.421875-8.878906 3.660156-13.664062zm0 0"/><path d="m329.800781 138.359375c3.457031 0 6.816407-1.792969 8.667969-5l.117188-.207031c2.765624-4.78125 1.125-10.898438-3.65625-13.664063-4.78125-2.761719-10.898438-1.125-13.664063 3.660157l-.117187.207031c-2.761719 4.78125-1.125 10.898437 3.660156 13.660156 1.574218.910156 3.292968 1.34375 4.992187 1.34375zm0 0"/><path d="m403.824219 266.179688c5.523437 0 10-4.476563 10-10 0-5.523438-4.476563-10.003907-10-10.003907h-.234375c-5.523438 0-10.003906 4.480469-10.003906 10.003907 0 5.523437 4.480468 10 10.003906 10zm0 0"/><path d="m221.230469 416.503906h-.234375c-5.523438 0-10 4.476563-10 10 0 5.523438 4.476562 10 10 10h.234375c5.523437 0 10.003906-4.476562 10.003906-10 0-5.523437-4.480469-10-10.003906-10zm0 0"/><path d="m291.007812 416.503906h-41.042968c-5.519532 0-10 4.480469-10 10.003906 0 5.523438 4.480468 10 10 10h41.042968c5.519532 0 10-4.476562 10-10 0-5.523437-4.476562-10.003906-10-10.003906zm0 0"/></svg>