<?xml version="1.0" encoding="UTF-8" standalone="no"?>
<!DOCTYPE svg PUBLIC "-//W3C//DTD SVG 1.1//EN" "http://www.w3.org/Graphics/SVG/1.1/DTD/svg11.dtd">
<svg version="1.1" xmlns="http://www.w3.org/2000/svg" xmlns:xlink="http://www.w3.org/1999/xlink" preserveAspectRatio="xMidYMid meet" viewBox="-1.0000000000000036 -1 127.51346062017934 146.6213832927349" width="123.51" height="142.62"><defs><path d="M123.51 106.97L61.76 142.62L0 106.97L0 35.66L61.76 0L123.51 35.66L123.51 106.97ZM9.21 101.65L61.76 131.99L114.3 101.65L114.3 40.97L61.76 10.63L9.21 40.97L9.21 101.65Z" id="a6FJPJhyG"></path><path d="M101.74 44.83C101.74 44.83 101.74 44.83 101.74 44.83C101.74 76.61 101.74 94.26 101.74 97.79C101.74 97.79 101.74 97.79 101.74 97.79C96.22 97.79 93.15 97.79 92.53 97.79C92.53 97.79 92.53 97.79 92.53 97.79C92.53 66.02 92.53 48.36 92.53 44.83C92.53 44.83 92.53 44.83 92.53 44.83C98.06 44.83 101.13 44.83 101.74 44.83Z" id="d2yV21UB7a"></path><path d="M68.57 30.15C68.57 30.15 68.57 30.15 68.57 30.15C41.06 46.04 25.77 54.87 22.71 56.63C22.71 56.63 22.71 56.63 22.71 56.63C19.95 51.85 18.41 49.19 18.11 48.66C18.11 48.66 18.11 48.66 18.11 48.66C45.62 32.77 60.91 23.94 63.97 22.18C63.97 22.18 63.97 22.18 63.97 22.18C66.73 26.96 68.26 29.62 68.57 30.15Z" id="a1PMhqYhjs"></path><path d="M68.57 112.46C68.57 112.46 68.57 112.46 68.57 112.46C65.81 117.24 64.28 119.9 63.97 120.43C63.97 120.43 63.97 120.43 63.97 120.43C36.45 104.55 21.17 95.72 18.11 93.96C18.11 93.96 18.11 93.96 18.11 93.96C20.87 89.17 22.41 86.51 22.72 85.98C22.72 85.98 22.72 85.98 22.72 85.98C50.23 101.87 65.52 110.69 68.57 112.46Z" id="a1Wj7ExFmQ"></path></defs><g><g><use href="#a6FJPJhyG" opacity="1" fill="#38393a" fill-opacity="1"></use></g><g><use href="#d2yV21UB7a" opacity="1" fill="#0091ea" fill-opacity="1"></use><g><use href="#d2yV21UB7a" opacity="1" fill-opacity="0" stroke="#000000" stroke-width="1" stroke-opacity="0"></use></g></g><g><use href="#a1PMhqYhjs" opacity="1" fill="#0091ea" fill-opacity="1"></use><g><use href="#a1PMhqYhjs" opacity="1" fill-opacity="0" stroke="#000000" stroke-width="1" stroke-opacity="0"></use></g></g><g><use href="#a1Wj7ExFmQ" opacity="1" fill="#0091ea" fill-opacity="1"></use><g><use href="#a1Wj7ExFmQ" opacity="1" fill-opacity="0" stroke="#000000" stroke-width="1" stroke-opacity="0"></use></g></g></g></svg>