<svg id="Capa_1" enable-background="new 0 0 512 512" height="512" viewBox="0 0 512 512" width="512" xmlns="http://www.w3.org/2000/svg" xmlns:xlink="http://www.w3.org/1999/xlink"><linearGradient id="SVGID_1_" gradientUnits="userSpaceOnUse" x1="45.28" x2="466.732" y1="256" y2="256"><stop offset="0" stop-color="#d2deff" stop-opacity="0"/><stop offset="1" stop-color="#b7c5ff"/></linearGradient><g><g><g><g><path d="m97.152 38.232c-135.327 119.538 38.831 235.409 22.243 366.028-7.375 58.072 16.054 113.588 92.705 107.244 93.413-7.732 59.504-97.209 79.066-156.778 33.66-102.501 240.73-78.56 154.895-236.448-54.778-100.758-255.767-162.321-348.909-80.046z" fill="url(#SVGID_1_)"/></g><g><path d="m490.134 442.33-116.163-116.163c14.382-18.484 24.939-40.088 30.484-63.629h56.096c5.523 0 10-4.477 10-10v-55.8c0-5.523-4.477-10-10-10h-55.953c-17.038-73.539-82.955-128.349-161.675-128.349s-144.638 54.81-161.676 128.349h-55.423c-5.523 0-10 4.477-10 10v55.8c0 5.523 4.477 10 10 10h55.566c17.252 73.243 83.022 127.763 161.532 127.763 38.378 0 73.709-13.033 101.822-34.907l116.164 116.164c8.071 8.071 21.156 8.071 29.227 0 8.07-8.071 8.07-21.157-.001-29.228z" fill="#2626bc" opacity=".1"/><g><path d="m490.134 448.273c-8.071 8.071-21.156 8.071-29.227 0l-131.482-131.482 29.227-29.227 131.483 131.483c8.07 8.07 8.07 21.156-.001 29.226z" fill="#fff"/><path d="m387.247 356.337h41.333v18h-41.333z" fill="#6583fe" transform="matrix(.707 -.707 .707 .707 -138.857 395.443)"/><path d="m346.352 291.942h41.334v65h-41.334z" fill="#6583fe" transform="matrix(.707 -.707 .707 .707 -121.918 354.549)"/><g><circle cx="242.922" cy="201.061" fill="#fff" r="165.956"/><circle cx="242.922" cy="200.345" fill="#6583fe" r="130"/><g fill="#fff"><path d="m174.738 308.453c1.674-1.667 121.041-120.834 178.81-178.99-8.59-13.883-19.714-26.034-32.735-35.794-6.386 6.386-127.707 127.707-181.98 181.98 9.786 13.057 21.975 24.205 35.905 32.804z"/><path d="m267.039 72.592c-12.916 12.827-114.252 113.83-151.913 151.595 1.503 8.113 3.744 15.965 6.679 23.474 56.144-56.144 112.288-112.288 168.432-168.432-7.424-2.903-15.182-5.134-23.198-6.637z"/></g></g><path d="m460.55 238.538h-434.726c-5.523 0-10-4.477-10-10v-55.8c0-5.523 4.477-10 10-10h434.726c5.523 0 10 4.477 10 10v55.8c0 5.523-4.477 10-10 10z" fill="#fff"/><path d="m460.55 162.738h-79.363v75.8h79.363c5.523 0 10-4.477 10-10v-55.8c0-5.523-4.477-10-10-10z" fill="#6583fe"/><g fill="#2626bc"><g><path d="m164.695 222.228c-.001 0-.001 0-.001 0-1.922-.001-3.674-1.102-4.506-2.835l-15.934-33.18c-1.195-2.489-.146-5.476 2.343-6.672 2.487-1.195 5.476-.147 6.672 2.343l11.429 23.799 5.945-12.37c1.195-2.49 4.183-3.537 6.672-2.34 2.489 1.196 3.537 4.184 2.34 6.672l-10.454 21.75c-.832 1.731-2.584 2.833-4.506 2.833z"/><path d="m185.598 222.225c-1.922 0-3.674-1.102-4.507-2.835l-15.94-33.175c-1.196-2.489-.147-5.477 2.341-6.672s5.477-.148 6.672 2.341l11.433 23.795 11.432-23.795c1.196-2.49 4.182-3.536 6.672-2.341 2.489 1.196 3.537 4.183 2.341 6.672l-15.939 33.175c-.831 1.733-2.583 2.835-4.505 2.835z"/></g><g><path d="m232.734 222.228c-.001 0-.001 0 0 0-1.923-.001-3.675-1.102-4.507-2.835l-15.935-33.18c-1.195-2.489-.146-5.476 2.343-6.672 2.487-1.195 5.476-.147 6.672 2.343l11.429 23.798 5.945-12.37c1.196-2.488 4.182-3.537 6.672-2.34 2.489 1.196 3.537 4.183 2.34 6.672l-10.453 21.75c-.832 1.732-2.584 2.834-4.506 2.834z"/><path d="m253.636 222.225c-1.922 0-3.674-1.102-4.507-2.835l-15.939-33.175c-1.196-2.489-.148-5.477 2.341-6.672s5.477-.148 6.672 2.341l11.432 23.795 11.432-23.795c1.196-2.49 4.182-3.536 6.672-2.341 2.489 1.196 3.537 4.183 2.341 6.672l-15.939 33.175c-.83 1.733-2.582 2.835-4.505 2.835z"/></g><g><path d="m300.773 222.228c-.001 0-.001 0 0 0-1.923-.001-3.675-1.102-4.507-2.835l-15.935-33.18c-1.195-2.489-.146-5.476 2.343-6.672 2.488-1.195 5.476-.147 6.672 2.343l11.429 23.799 5.945-12.37c1.196-2.49 4.183-3.537 6.672-2.34 2.489 1.196 3.537 4.184 2.34 6.672l-10.454 21.75c-.832 1.731-2.584 2.833-4.505 2.833z"/><path d="m321.675 222.225c-1.922 0-3.674-1.102-4.507-2.835l-15.939-33.175c-1.196-2.489-.147-5.477 2.341-6.672 2.49-1.195 5.477-.148 6.672 2.341l11.433 23.795 11.432-23.795c1.196-2.49 4.182-3.536 6.672-2.341 2.489 1.196 3.537 4.183 2.341 6.672l-15.939 33.175c-.831 1.733-2.583 2.835-4.506 2.835z"/></g></g></g><g fill="#6583fe"><path d="m180.658 444.935c-1.28 0-2.559-.488-3.536-1.464l-11-11c-1.953-1.953-1.953-5.119 0-7.071l11-11c1.953-1.952 5.118-1.952 7.071 0l11 11c1.953 1.953 1.953 5.119 0 7.071l-11 11c-.976.975-2.255 1.464-3.535 1.464zm-3.928-16 3.929 3.929 3.929-3.929-3.929-3.929z"/><path d="m435.816 122.096c-1.28 0-2.559-.488-3.536-1.464l-11-11c-1.953-1.953-1.953-5.119 0-7.071l11-11c1.953-1.952 5.118-1.952 7.071 0l11 11c1.953 1.953 1.953 5.119 0 7.071l-11 11c-.976.976-2.256 1.464-3.535 1.464zm-3.929-16 3.929 3.929 3.929-3.929-3.929-3.929z"/><path d="m237.697 433.268c-2.761 0-5-2.239-5-5 0-3.309-2.691-6-6-6-2.761 0-5-2.239-5-5s2.239-5 5-5c3.309 0 6-2.691 6-6 0-2.761 2.239-5 5-5s5 2.239 5 5c0 3.309 2.691 6 6 6 2.761 0 5 2.239 5 5s-2.239 5-5 5c-3.309 0-6 2.691-6 6 0 2.761-2.238 5-5 5z"/><path d="m71.456 71.349c-2.761 0-5-2.239-5-5 0-3.309-2.691-6-6-6-2.761 0-5-2.239-5-5s2.239-5 5-5c3.309 0 6-2.691 6-6 0-2.761 2.239-5 5-5s5 2.239 5 5c0 3.309 2.691 6 6 6 2.761 0 5 2.239 5 5s-2.239 5-5 5c-3.309 0-6 2.691-6 6 0 2.761-2.239 5-5 5z"/><path d="m404.614 71.349c-2.761 0-5-2.239-5-5 0-3.309-2.691-6-6-6-2.761 0-5-2.239-5-5s2.239-5 5-5c3.309 0 6-2.691 6-6 0-2.761 2.239-5 5-5s5 2.239 5 5c0 3.309 2.691 6 6 6 2.761 0 5 2.239 5 5s-2.239 5-5 5c-3.309 0-6 2.691-6 6 0 2.761-2.239 5-5 5z"/></g></g></g><path d="m420.09 213.105c3.034 0 5.949-.762 8.537-2.182l10.335 10.335c.977.976 2.256 1.464 3.536 1.464s2.559-.488 3.536-1.464c1.953-1.953 1.953-5.119 0-7.071l-10.335-10.335c1.42-2.588 2.182-5.503 2.182-8.537 0-4.752-1.851-9.22-5.211-12.58v.001c-3.36-3.36-7.828-5.212-12.58-5.212s-9.22 1.851-12.58 5.212c-6.935 6.936-6.935 18.223 0 25.159 3.36 3.36 7.828 5.21 12.58 5.21zm-5.509-23.299c1.471-1.472 3.428-2.282 5.509-2.282s4.037.811 5.508 2.282v.001c3.037 3.037 3.038 7.977.002 11.016-.001.001-.001.001-.002.001-.001.001-.001.001-.001.002-1.471 1.47-3.427 2.28-5.507 2.28-2.081 0-4.038-.81-5.509-2.281-3.037-3.039-3.037-7.982 0-11.019z" fill="#2626bc"/></g><path d="m367.922 200.345c0-68.925-56.075-125-125-125s-125 56.075-125 125c0 7.464.66 14.776 1.92 21.883h246.16c1.26-7.107 1.92-14.419 1.92-21.883z" fill="none"/><path d="m242.922 325.345c61.462 0 112.703-44.589 123.08-103.117h-246.16c10.377 58.528 61.618 103.117 123.08 103.117z" fill="none"/><path d="m493.67 414.795-113.107-113.107c12.824-17.414 22.339-37.19 27.801-58.15h52.187c8.271 0 15-6.729 15-15v-55.8c0-8.271-6.729-15-15-15h-89.523c-17.881-53.624-68.548-92.393-128.105-92.393s-110.224 38.769-128.105 92.393h-27.145c8.976-32.719 28.46-62.24 55.208-83.49 28.704-22.805 63.298-34.858 100.042-34.858 62.889 0 120.399 36.983 146.513 94.219 1.146 2.512 4.113 3.621 6.624 2.473 2.512-1.146 3.62-4.112 2.473-6.625-27.735-60.789-88.816-100.068-155.61-100.068-39.026 0-75.771 12.804-106.262 37.028-29.122 23.136-50.136 55.513-59.331 91.32h-51.506c-8.271 0-15 6.729-15 15v55.8c0 8.271 6.729 15 15 15h51.655c9.273 35.576 30.219 67.728 59.184 90.737 30.491 24.223 67.234 37.026 106.259 37.026 36.951 0 71.87-11.495 101.368-33.29l113.082 113.082c5.004 5.003 11.577 7.505 18.149 7.505 6.573 0 13.146-2.502 18.149-7.505 10.007-10.006 10.007-26.29 0-36.297zm-250.748-339.45c53.97 0 100.058 34.382 117.518 82.393h-235.036c17.46-48.01 63.548-82.393 117.518-82.393zm-217.098 158.193c-2.757 0-5-2.243-5-5v-55.8c0-2.757 2.243-5 5-5h434.726c2.757 0 5 2.243 5 5v55.8c0 2.757-2.243 5-5 5zm334.402 10c-17.621 47.704-63.554 81.807-117.304 81.807s-99.684-34.103-117.304-81.807zm-17.554 83.136c-28.649 22.653-63.142 34.627-99.75 34.627-36.742 0-71.335-12.053-100.039-34.856-26.589-21.123-46-50.421-55.047-82.907h27.188c18.053 53.319 68.558 91.807 127.897 91.807s109.844-38.488 127.897-91.807h27.191c-9.075 32.602-28.611 62.003-55.337 83.136zm143.927 117.348c-2.959 2.959-6.893 4.589-11.078 4.589s-8.119-1.63-11.078-4.589l-112.225-112.225c8.061-6.715 15.468-14.149 22.135-22.177l112.246 112.246c6.108 6.109 6.108 16.048 0 22.156z" fill="#2626bc"/></g></svg>