<?xml version="1.0" encoding="UTF-8" standalone="no"?>
<!DOCTYPE svg PUBLIC "-//W3C//DTD SVG 1.1//EN" "http://www.w3.org/Graphics/SVG/1.1/DTD/svg11.dtd">
<svg version="1.1" xmlns="http://www.w3.org/2000/svg" xmlns:xlink="http://www.w3.org/1999/xlink" preserveAspectRatio="xMidYMid meet" viewBox="39 17.289473684210606 544.5131578947369 465.71052631578937" width="540.51" height="461.71"><defs><path d="M88.34 400C75.09 400 64.34 410.75 64.34 424C64.34 437.25 75.09 448 88.34 448C101.6 448 112.34 437.25 112.34 424C112.34 410.75 101.6 400 88.34 400Z" id="d2gbyiISqz"></path><path d="M187.74 303.6C170.06 303.6 155.74 317.93 155.74 335.6C155.74 353.27 170.06 367.6 187.74 367.6C205.41 367.6 219.74 353.27 219.74 335.6C219.74 317.93 205.41 303.6 187.74 303.6Z" id="a1LpFNDsXf"></path><path d="M464 24C450.75 24 440 34.75 440 48C440 61.25 450.75 72 464 72C477.25 72 488 61.25 488 48C488 34.75 477.25 24 464 24Z" id="ccjvniRIN"></path><path d="M296 286.63C296 291.39 296 315.21 296 358.07L312 358.07C312 315.21 312 291.39 312 286.63C309.36 286.98 306.72 287.51 304 287.51C301.28 287.51 298.64 286.98 296 286.63Z" id="a1ohkFHp5p"></path><path d="M280 456C280 469.25 290.75 480 304 480C317.25 480 328 469.25 328 456C328 449.07 328 414.4 328 352L280 352C280 407.47 280 442.13 280 456Z" id="a1kQ4RleIX"></path><path d="M176 160C176 230.69 233.31 288 304 288C374.69 288 432 230.69 432 160C431.91 89.35 374.65 32.09 304 32C233.31 32 176 89.31 176 160ZM192 160C192 98.14 242.14 48 304 48C365.86 48 416 98.14 416 160C415.93 221.83 365.83 271.93 304 272C242.14 272 192 221.86 192 160Z" id="aAdHMxDwZ"></path><path d="M100.26 42.29C91.43 42.29 84.26 49.45 84.26 58.29C84.26 67.13 91.43 74.29 100.26 74.29C109.1 74.29 116.26 67.13 116.26 58.29C116.26 49.45 109.1 42.29 100.26 42.29Z" id="c2bR77Mn8R"></path><path d="M140.26 58.29C140.26 36.2 122.35 18.29 100.26 18.29C78.17 18.29 60.26 36.2 60.26 58.29C60.29 80.37 78.18 98.26 100.26 98.29C122.35 98.29 140.26 80.38 140.26 58.29ZM132.26 58.29C132.26 75.96 117.94 90.29 100.26 90.29C82.59 90.29 68.26 75.96 68.26 58.29C68.26 40.62 82.59 26.29 100.26 26.29C117.94 26.29 132.26 40.62 132.26 58.29Z" id="bfeyHYH01"></path><path d="M70.13 245.82C63.48 245.82 58.08 251.21 58.08 257.87C58.08 264.52 63.48 269.92 70.13 269.92C76.79 269.92 82.18 264.52 82.18 257.87C82.18 251.21 76.79 245.82 70.13 245.82Z" id="a5LtyMlcEJ"></path><path d="M40 257.87C40 274.51 53.49 288 70.13 288C86.77 288 100.26 274.51 100.26 257.87C100.24 241.24 86.76 227.76 70.13 227.74C53.49 227.74 40 241.23 40 257.87ZM46.03 257.87C46.03 244.56 56.82 233.76 70.13 233.76C83.44 233.76 94.24 244.56 94.24 257.87C94.24 271.18 83.44 281.97 70.13 281.97C56.82 281.97 46.03 271.18 46.03 257.87Z" id="bD4yvPRT3"></path><path d="M424 388.16C415.16 388.16 408 395.32 408 404.16C408 412.99 415.16 420.16 424 420.16C432.84 420.16 440 412.99 440 404.16C440 395.32 432.84 388.16 424 388.16Z" id="a1axFkOyXf"></path><path d="M384 404.16C384 426.25 401.91 444.16 424 444.16C446.09 444.16 464 426.25 464 404.16C463.97 382.08 446.08 364.18 424 364.16C401.91 364.16 384 382.07 384 404.16ZM392 404.16C392 386.48 406.33 372.16 424 372.16C441.67 372.16 456 386.48 456 404.16C456 421.83 441.67 436.16 424 436.16C406.33 436.16 392 421.83 392 404.16Z" id="apu09aqid"></path><path d="M304 135.32C290.37 135.32 279.32 146.37 279.32 160C279.32 173.63 290.37 184.68 304 184.68C317.63 184.68 328.68 173.63 328.68 160C328.68 146.37 317.63 135.32 304 135.32Z" id="b1lSKS5aMt"></path><path d="M242.29 160C242.29 194.08 269.92 221.71 304 221.71C338.08 221.71 365.71 194.08 365.71 160C365.67 125.94 338.06 98.33 304 98.29C269.92 98.29 242.29 125.92 242.29 160ZM254.63 160C254.63 132.73 276.73 110.63 304 110.63C331.27 110.63 353.37 132.73 353.37 160C353.37 187.27 331.27 209.37 304 209.37C276.73 209.37 254.63 187.27 254.63 160Z" id="dlPOUKlJI"></path><path d="M488 240C476.95 240 468 248.95 468 260C468 271.05 476.95 280 488 280C499.05 280 508 271.05 508 260C508 248.95 499.05 240 488 240Z" id="k2N2Uc2joF"></path><path d="M539.14 113.8C533.43 113.8 528.8 118.43 528.8 124.14C528.8 129.86 533.43 134.49 539.14 134.49C544.86 134.49 549.49 129.86 549.49 124.14C549.49 118.43 544.86 113.8 539.14 113.8Z" id="djLlVALDh"></path><path d="M513.29 124.14C513.29 138.42 524.87 150 539.14 150C553.42 150 565 138.42 565 124.14C564.98 109.87 553.42 98.31 539.14 98.29C524.87 98.29 513.29 109.87 513.29 124.14ZM518.46 124.14C518.46 112.72 527.72 103.46 539.14 103.46C550.57 103.46 559.83 112.72 559.83 124.14C559.83 135.57 550.57 144.83 539.14 144.83C527.72 144.83 518.46 135.57 518.46 124.14Z" id="fqVtvCGT5"></path><path d="M554.66 330.42C540.38 330.42 528.8 342 528.8 356.28C528.8 370.56 540.38 382.13 554.66 382.13C568.94 382.13 580.51 370.56 580.51 356.28C580.51 342 568.94 330.42 554.66 330.42Z" id="b2mztTAvQb"></path><path d="M124.32 155.92C113.27 155.92 104.32 164.88 104.32 175.92C104.32 186.97 113.27 195.92 124.32 195.92C135.36 195.92 144.32 186.97 144.32 175.92C144.32 164.88 135.36 155.92 124.32 155.92Z" id="fIJwBM173"></path></defs><g><g><use xlink:href="#d2gbyiISqz" opacity="0.5" fill="#000000" fill-opacity="1"></use></g><g><use xlink:href="#a1LpFNDsXf" opacity="0.5" fill="#000000" fill-opacity="1"></use></g><g><use xlink:href="#ccjvniRIN" opacity="0.5" fill="#000000" fill-opacity="1"></use></g><g><use xlink:href="#a1ohkFHp5p" opacity="1" fill="#000000" fill-opacity="1"></use></g><g><use xlink:href="#a1kQ4RleIX" opacity="1" fill="#000000" fill-opacity="1"></use></g><g><use xlink:href="#aAdHMxDwZ" opacity="1" fill="#000000" fill-opacity="1"></use></g><g><use xlink:href="#c2bR77Mn8R" opacity="0.75" fill="#000000" fill-opacity="1"></use></g><g><use xlink:href="#bfeyHYH01" opacity="0.75" fill="#000000" fill-opacity="1"></use></g><g><use xlink:href="#a5LtyMlcEJ" opacity="0.75" fill="#000000" fill-opacity="1"></use></g><g><use xlink:href="#bD4yvPRT3" opacity="0.75" fill="#000000" fill-opacity="1"></use></g><g><use xlink:href="#a1axFkOyXf" opacity="0.75" fill="#000000" fill-opacity="1"></use></g><g><use xlink:href="#apu09aqid" opacity="0.75" fill="#000000" fill-opacity="1"></use></g><g><use xlink:href="#b1lSKS5aMt" opacity="0.85" fill="#000000" fill-opacity="1"></use></g><g><use xlink:href="#dlPOUKlJI" opacity="0.85" fill="#000000" fill-opacity="1"></use></g><g><use xlink:href="#k2N2Uc2joF" opacity="0.5" fill="#000000" fill-opacity="1"></use></g><g><use xlink:href="#djLlVALDh" opacity="0.75" fill="#000000" fill-opacity="1"></use></g><g><use xlink:href="#fqVtvCGT5" opacity="0.75" fill="#000000" fill-opacity="1"></use></g><g><use xlink:href="#b2mztTAvQb" opacity="0.5" fill="#000000" fill-opacity="1"></use></g><g><use xlink:href="#fIJwBM173" opacity="0.5" fill="#000000" fill-opacity="1"></use></g></g></svg>